<svg width="80" height="40" viewBox="0 0 80 40" fill="none" xmlns="http://www.w3.org/2000/svg">
<path d="M0 21.6001C0 20.2869 1.03463 18.9865 3.04482 17.7733C5.05501 16.56 8.00139 15.4576 11.7157 14.529C15.4301 13.6004 19.8396 12.8638 24.6927 12.3613C29.5457 11.8588 34.7471 11.6001 40 11.6001C45.2529 11.6001 50.4543 11.8588 55.3073 12.3613C60.1604 12.8638 64.5699 13.6004 68.2843 14.529C71.9986 15.4576 74.945 16.56 76.9552 17.7733C78.9654 18.9865 80 20.2869 80 21.6001L70 21.6001C70 20.6152 69.224 19.6399 67.7164 18.73C66.2087 17.82 63.999 16.9932 61.2132 16.2968C58.4274 15.6004 55.1203 15.0479 51.4805 14.671C47.8407 14.2941 43.9397 14.1001 40 14.1001C36.0603 14.1001 32.1593 14.2941 28.5195 14.671C24.8797 15.0479 21.5726 15.6004 18.7868 16.2968C16.001 16.9932 13.7913 17.82 12.2836 18.73C10.776 19.6399 10 20.6152 10 21.6001L0 21.6001Z" fill="#FFEB3B"/>
<circle cx="40" cy="20" r="20" fill="#FF5722"/>
<path d="M80 21.6001C80 22.9133 78.9654 24.2137 76.9552 25.4269C74.945 26.6402 71.9986 27.7426 68.2843 28.6712C64.5699 29.5998 60.1604 30.3363 55.3073 30.8389C50.4543 31.3414 45.2529 31.6001 40 31.6001C34.7471 31.6001 29.5457 31.3414 24.6927 30.8389C19.8396 30.3363 15.4301 29.5998 11.7157 28.6712C8.00138 27.7426 5.05501 26.6402 3.04482 25.4269C1.03463 24.2137 -4.59221e-07 22.9133 0 21.6001L10 21.6001C10 22.585 10.776 23.5603 12.2836 24.4702C13.7913 25.3802 16.001 26.207 18.7868 26.9034C21.5726 27.5998 24.8797 28.1523 28.5195 28.5292C32.1593 28.9061 36.0603 29.1001 40 29.1001C43.9397 29.1001 47.8407 28.9061 51.4805 28.5292C55.1203 28.1523 58.4274 27.5998 61.2132 26.9034C63.999 26.207 66.2087 25.3802 67.7164 24.4702C69.224 23.5603 70 22.585 70 21.6001H80Z" fill="#FFEB3B"/>
</svg>
