<svg width="80" height="40" viewBox="0 0 80 40" fill="none" xmlns="http://www.w3.org/2000/svg">
<path d="M0 21.6C0 20.2868 1.03463 18.9864 3.04482 17.7731C5.05501 16.5599 8.00139 15.4575 11.7157 14.5289C15.4301 13.6003 19.8396 12.8637 24.6927 12.3612C29.5457 11.8586 34.7471 11.6 40 11.6C45.2529 11.6 50.4543 11.8586 55.3073 12.3612C60.1604 12.8637 64.5699 13.6003 68.2843 14.5289C71.9986 15.4575 74.945 16.5599 76.9552 17.7731C78.9654 18.9864 80 20.2868 80 21.6L70 21.6C70 20.6151 69.224 19.6398 67.7164 18.7299C66.2087 17.8199 63.999 16.9931 61.2132 16.2967C58.4274 15.6002 55.1203 15.0478 51.4805 14.6709C47.8407 14.294 43.9397 14.1 40 14.1C36.0603 14.1 32.1593 14.294 28.5195 14.6709C24.8797 15.0478 21.5726 15.6002 18.7868 16.2967C16.001 16.9931 13.7913 17.8199 12.2836 18.7298C10.776 19.6398 10 20.6151 10 21.6L0 21.6Z" fill="#FFEB3B"/>
<circle cx="40" cy="20" r="20" fill="#FF5722"/>
<path d="M80 21.6C80 22.9132 78.9654 24.2136 76.9552 25.4268C74.945 26.6401 71.9986 27.7425 68.2843 28.671C64.5699 29.5996 60.1604 30.3362 55.3073 30.8388C50.4543 31.3413 45.2529 31.6 40 31.6C34.7471 31.6 29.5457 31.3413 24.6927 30.8388C19.8396 30.3362 15.4301 29.5996 11.7157 28.671C8.00138 27.7425 5.05501 26.6401 3.04482 25.4268C1.03463 24.2136 -4.59221e-07 22.9132 0 21.6H10C10 22.5849 10.776 23.5602 12.2836 24.4701C13.7913 25.38 16.001 26.2068 18.7868 26.9033C21.5726 27.5997 24.8797 28.1522 28.5195 28.5291C32.1593 28.906 36.0603 29.1 40 29.1C43.9397 29.1 47.8407 28.906 51.4805 28.5291C55.1203 28.1522 58.4274 27.5997 61.2132 26.9033C63.999 26.2068 66.2087 25.38 67.7164 24.4701C69.224 23.5602 70 22.5849 70 21.6H80Z" fill="#FFEB3B"/>
</svg>
